<?xml version="1.0" encoding="UTF-8" standalone="no"?><svg xmlns="http://www.w3.org/2000/svg" xmlns:xlink="http://www.w3.org/1999/xlink" fill="#000000" height="233" preserveAspectRatio="xMidYMid meet" version="1" viewBox="36.1 48.6 1017.4 233.0" width="1017.4" zoomAndPan="magnify"><g id="change1_1"><path d="M103.2,281.6h913.3c20.4,0,37-16.6,37-37V115.7c0-20.4-16.6-37-37-37H103.2c-20.4,0-37,16.6-37,37v128.8 C66.2,265,82.8,281.6,103.2,281.6z"/></g><g id="change2_1"><path d="M81.5,255.9H987c22.6,0,40.9-18.3,40.9-40.9V94c0-22.6-18.3-40.9-40.9-40.9H81.5 c-22.6,0-40.9,18.3-40.9,40.9v121C40.6,237.6,58.9,255.9,81.5,255.9z" fill="#00bf63"/></g><g id="change3_1"><path d="M987,260.4H81.5c-25,0-45.4-20.4-45.4-45.4V94c0-25,20.4-45.4,45.4-45.4H987c25,0,45.4,20.4,45.4,45.4v121 C1032.4,240.1,1012,260.4,987,260.4z M81.5,57.6C61.4,57.6,45.1,74,45.1,94v121c0,20.1,16.3,36.4,36.4,36.4H987 c20.1,0,36.4-16.3,36.4-36.4V94c0-20.1-16.3-36.4-36.4-36.4H81.5z" fill="#000000"/></g></svg>