<?xml version="1.0" encoding="UTF-8" standalone="no"?><svg xmlns="http://www.w3.org/2000/svg" xmlns:xlink="http://www.w3.org/1999/xlink" fill="#000000" height="47.5" preserveAspectRatio="xMidYMid meet" version="1" viewBox="3.0 8.6 58.0 47.5" width="58" zoomAndPan="magnify"><g fill="#9340ff" id="change1_1"><path d="M 5 14.214844 C 5 12.203125 6.636719 10.566406 8.648438 10.566406 L 49.992188 10.566406 C 52.003906 10.566406 53.640625 12.203125 53.640625 14.214844 L 53.640625 35.09375 L 49.414062 32.851562 C 50.183594 31.8125 50.613281 30.554688 50.613281 29.246094 C 50.613281 26.722656 49.074219 24.554688 46.882812 23.625 C 47.589844 23.59375 48.285156 23.308594 48.824219 22.769531 C 49.378906 22.214844 49.683594 21.476562 49.683594 20.691406 C 49.683594 19.90625 49.378906 19.167969 48.824219 18.613281 C 47.691406 17.476562 46.117188 16.828125 44.511719 16.828125 C 41.148438 16.828125 38.410156 19.5625 38.410156 22.925781 C 38.410156 25.449219 39.953125 27.621094 42.144531 28.546875 C 41.4375 28.578125 40.738281 28.863281 40.199219 29.402344 C 40.191406 29.410156 40.179688 29.421875 40.167969 29.433594 C 39.050781 30.582031 39.0625 32.425781 40.199219 33.558594 C 41.066406 34.425781 42.191406 35.007812 43.390625 35.234375 L 43.164062 41.609375 L 8.648438 41.609375 C 6.636719 41.609375 5 39.972656 5 37.960938 Z M 59 40.628906 C 59.003906 40.753906 58.96875 41.070312 58.640625 41.261719 L 55.085938 43.316406 C 54.609375 43.589844 54.445312 44.203125 54.71875 44.679688 L 57.886719 50.160156 C 58.484375 51.203125 58.140625 52.53125 57.085938 53.140625 C 56.023438 53.75 54.707031 53.378906 54.105469 52.34375 L 50.945312 46.863281 C 50.808594 46.632812 50.59375 46.464844 50.335938 46.394531 C 50.25 46.371094 50.164062 46.363281 50.078125 46.363281 C 49.902344 46.363281 49.730469 46.40625 49.578125 46.496094 L 46.023438 48.546875 C 45.691406 48.738281 45.402344 48.605469 45.292969 48.539062 C 45.183594 48.476562 44.929688 48.28125 44.945312 47.898438 C 45.097656 43.527344 45.320312 37.253906 45.414062 34.523438 C 45.429688 34.050781 45.746094 33.820312 45.882812 33.742188 C 46.019531 33.664062 46.378906 33.503906 46.796875 33.726562 L 47.347656 34.019531 C 47.351562 34.019531 47.355469 34.023438 47.355469 34.023438 L 58.617188 40.003906 C 58.957031 40.183594 58.996094 40.5 59 40.628906 Z M 45.183594 23.183594 C 44.964844 23.160156 44.738281 23.144531 44.511719 23.144531 C 44.363281 23.144531 44.289062 23.070312 44.289062 22.925781 C 44.289062 22.78125 44.367188 22.703125 44.511719 22.703125 C 44.578125 22.703125 44.617188 22.722656 44.667969 22.769531 C 44.828125 22.929688 45.003906 23.066406 45.183594 23.183594 Z M 43.835938 28.988281 C 44.054688 29.011719 44.28125 29.023438 44.511719 29.023438 C 44.65625 29.023438 44.734375 29.101562 44.734375 29.246094 C 44.734375 29.550781 44.472656 29.523438 44.359375 29.40625 C 44.195312 29.242188 44.019531 29.101562 43.835938 28.988281 Z M 44.511719 31.46875 C 45.757812 31.46875 46.734375 30.492188 46.734375 29.246094 C 46.734375 28 45.757812 27.023438 44.511719 27.023438 C 42.25 27.023438 40.410156 25.1875 40.410156 22.925781 C 40.410156 20.703125 42.289062 18.828125 44.511719 18.828125 C 45.589844 18.828125 46.648438 19.265625 47.410156 20.027344 C 47.585938 20.203125 47.683594 20.441406 47.683594 20.691406 C 47.683594 20.941406 47.585938 21.179688 47.40625 21.355469 C 47.042969 21.722656 46.449219 21.71875 46.082031 21.359375 C 45.664062 20.9375 45.105469 20.703125 44.511719 20.703125 C 43.265625 20.703125 42.289062 21.679688 42.289062 22.925781 C 42.289062 24.171875 43.265625 25.144531 44.511719 25.144531 C 46.734375 25.144531 48.613281 27.023438 48.613281 29.246094 C 48.613281 30.230469 48.234375 31.160156 47.59375 31.90625 C 46.722656 31.5 45.722656 31.523438 44.882812 32.007812 C 44.367188 32.304688 43.984375 32.75 43.734375 33.265625 C 42.9375 33.109375 42.1875 32.722656 41.613281 32.144531 C 41.246094 31.78125 41.246094 31.183594 41.613281 30.816406 C 41.617188 30.8125 41.625 30.804688 41.632812 30.796875 C 41.996094 30.449219 42.582031 30.457031 42.941406 30.816406 C 43.367188 31.242188 43.910156 31.46875 44.511719 31.46875 Z M 8.648438 43.609375 L 43.09375 43.609375 L 42.945312 47.828125 C 42.910156 48.832031 43.402344 49.738281 44.261719 50.253906 C 45.121094 50.773438 46.152344 50.78125 47.023438 50.28125 L 49.710938 48.726562 L 52.375 53.34375 C 53.53125 55.347656 56.078125 56.03125 58.085938 54.871094 C 60.089844 53.714844 60.777344 51.167969 59.617188 49.160156 L 56.953125 44.546875 L 59.640625 42.996094 C 60.507812 42.492188 61.015625 41.597656 61 40.59375 C 60.980469 39.589844 60.445312 38.710938 59.554688 38.238281 L 55.640625 36.15625 L 55.640625 14.214844 C 55.640625 11.097656 53.105469 8.566406 49.992188 8.566406 L 8.648438 8.566406 C 5.535156 8.566406 3 11.097656 3 14.214844 L 3 37.960938 C 3 41.074219 5.535156 43.609375 8.648438 43.609375" fill="inherit"/><path d="M 15.433594 22.378906 C 16.199219 22.378906 16.785156 22.863281 16.925781 23.570312 L 13.9375 23.570312 C 14.078125 22.863281 14.664062 22.378906 15.433594 22.378906 Z M 12.90625 25.570312 L 17.957031 25.570312 C 18.511719 25.570312 18.957031 25.121094 18.957031 24.570312 L 18.957031 23.902344 C 18.957031 21.925781 17.410156 20.378906 15.433594 20.378906 C 13.457031 20.378906 11.90625 21.925781 11.90625 23.902344 L 11.90625 24.570312 C 11.90625 25.121094 12.355469 25.570312 12.90625 25.570312" fill="inherit"/><path d="M 10.027344 23.902344 C 10.027344 20.925781 12.453125 18.5 15.433594 18.5 C 18.410156 18.5 20.835938 20.925781 20.835938 23.902344 L 20.835938 32.734375 C 20.835938 33.253906 20.414062 33.671875 19.898438 33.671875 C 19.378906 33.671875 18.957031 33.253906 18.957031 32.734375 L 18.957031 28.449219 C 18.957031 27.898438 18.511719 27.449219 17.957031 27.449219 L 12.90625 27.449219 C 12.355469 27.449219 11.90625 27.898438 11.90625 28.449219 L 11.90625 32.734375 C 11.90625 33.253906 11.484375 33.671875 10.96875 33.671875 C 10.449219 33.671875 10.027344 33.253906 10.027344 32.734375 Z M 10.96875 35.671875 C 12.589844 35.671875 13.90625 34.355469 13.90625 32.734375 L 13.90625 29.449219 L 16.957031 29.449219 L 16.957031 32.734375 C 16.957031 34.355469 18.277344 35.671875 19.898438 35.671875 C 21.519531 35.671875 22.835938 34.355469 22.835938 32.734375 L 22.835938 23.902344 C 22.835938 19.820312 19.515625 16.5 15.433594 16.5 C 11.351562 16.5 8.027344 19.820312 8.027344 23.902344 L 8.027344 32.734375 C 8.027344 34.355469 9.347656 35.671875 10.96875 35.671875" fill="inherit"/><path d="M 29.601562 22.378906 L 31.3125 22.378906 C 31.535156 22.378906 31.648438 22.492188 31.648438 22.714844 L 31.648438 29.457031 C 31.648438 29.613281 31.589844 29.796875 31.3125 29.796875 L 29.601562 29.796875 Z M 28.601562 31.796875 L 31.3125 31.796875 C 32.644531 31.796875 33.648438 30.789062 33.648438 29.457031 L 33.648438 22.714844 C 33.648438 21.382812 32.644531 20.378906 31.3125 20.378906 L 28.601562 20.378906 C 28.046875 20.378906 27.601562 20.828125 27.601562 21.378906 L 27.601562 30.796875 C 27.601562 31.347656 28.046875 31.796875 28.601562 31.796875" fill="inherit"/><path d="M 25.722656 19.441406 C 25.722656 18.921875 26.144531 18.5 26.660156 18.5 L 31.3125 18.5 C 33.597656 18.5 35.527344 20.429688 35.527344 22.714844 L 35.527344 29.457031 C 35.527344 31.742188 33.597656 33.671875 31.3125 33.671875 L 26.660156 33.671875 C 26.144531 33.671875 25.722656 33.253906 25.722656 32.734375 Z M 26.660156 35.671875 L 31.3125 35.671875 C 34.738281 35.671875 37.527344 32.886719 37.527344 29.457031 L 37.527344 22.714844 C 37.527344 19.289062 34.738281 16.5 31.3125 16.5 L 26.660156 16.5 C 25.042969 16.5 23.722656 17.820312 23.722656 19.441406 L 23.722656 32.734375 C 23.722656 34.355469 25.042969 35.671875 26.660156 35.671875" fill="inherit"/></g></svg>