<?xml version="1.0" encoding="UTF-8" standalone="no"?><svg xmlns="http://www.w3.org/2000/svg" xmlns:xlink="http://www.w3.org/1999/xlink" fill="#000000" height="328.4" preserveAspectRatio="xMidYMid meet" version="1" viewBox="-0.3 0.0 374.6 328.4" width="374.6" zoomAndPan="magnify"><defs><clipPath id="a"><path d="M 55 206 L 79 206 L 79 328.410156 L 55 328.410156 Z M 55 206"/></clipPath><clipPath id="b"><path d="M 134 186 L 158 186 L 158 328.410156 L 134 328.410156 Z M 134 186"/></clipPath><clipPath id="c"><path d="M 213 154 L 237 154 L 237 328.410156 L 213 328.410156 Z M 213 154"/></clipPath><clipPath id="d"><path d="M 292 112 L 316 112 L 316 328.410156 L 292 328.410156 Z M 292 112"/></clipPath><clipPath id="e"><path d="M 261 0 L 374.378906 0 L 374.378906 113 L 261 113 Z M 261 0"/></clipPath></defs><g><g clip-path="url(#a)" id="change1_3"><path d="M 78.53125 217.78125 L 78.53125 316.890625 C 78.53125 323.25 73.371094 328.410156 67.011719 328.410156 C 60.652344 328.410156 55.492188 323.25 55.492188 316.890625 L 55.492188 217.78125 C 55.492188 211.421875 60.652344 206.261719 67.011719 206.261719 C 73.371094 206.261719 78.53125 211.421875 78.53125 217.78125" fill="#9340ff" fill-rule="evenodd"/></g><g clip-path="url(#b)" id="change1_5"><path d="M 157.683594 197.84375 L 157.683594 316.890625 C 157.683594 323.25 152.523438 328.410156 146.164062 328.410156 C 139.804688 328.410156 134.644531 323.25 134.644531 316.890625 L 134.644531 197.84375 C 134.644531 191.480469 139.804688 186.324219 146.164062 186.324219 C 152.523438 186.324219 157.683594 191.480469 157.683594 197.84375" fill="#9340ff" fill-rule="evenodd"/></g><g clip-path="url(#c)" id="change1_4"><path d="M 236.839844 165.921875 L 236.839844 316.890625 C 236.839844 323.25 231.679688 328.410156 225.320312 328.410156 C 218.960938 328.410156 213.800781 323.25 213.800781 316.890625 L 213.800781 165.921875 C 213.800781 159.5625 218.960938 154.402344 225.320312 154.402344 C 231.679688 154.402344 236.839844 159.5625 236.839844 165.921875" fill="#9340ff" fill-rule="evenodd"/></g><g clip-path="url(#d)" id="change1_1"><path d="M 315.992188 124.25 L 315.992188 316.890625 C 315.992188 323.25 310.832031 328.410156 304.472656 328.410156 C 298.113281 328.410156 292.953125 323.25 292.953125 316.890625 L 292.953125 124.25 C 292.953125 117.890625 298.113281 112.730469 304.472656 112.730469 C 310.832031 112.730469 315.992188 117.890625 315.992188 124.25" fill="#9340ff" fill-rule="evenodd"/></g><g id="change1_2"><path d="M 10.980469 193.675781 C 4.65625 193.382812 -0.261719 188.015625 0.0117188 181.6875 C 0.285156 175.351562 5.667969 170.410156 12.003906 170.691406 C 22.429688 171.152344 33.472656 170.523438 43.839844 169.628906 C 71.308594 167.253906 98.824219 161.835938 125.277344 154.125 C 214.359375 128.15625 291 76.304688 351.242188 5.949219 C 355.355469 1.148438 362.65625 0.578125 367.460938 4.691406 C 372.265625 8.804688 372.835938 16.109375 368.722656 20.914062 C 305.5625 94.675781 225.128906 148.890625 131.761719 176.121094 C 103.8125 184.269531 74.765625 189.988281 45.746094 192.519531 C 37.382812 193.246094 28.964844 193.722656 20.566406 193.804688 C 17.390625 193.839844 14.15625 193.835938 10.980469 193.675781" fill="#9340ff" fill-rule="evenodd"/></g><g clip-path="url(#e)" id="change1_6"><path d="M 267.304688 0.0195312 C 264.136719 0.0195312 261.566406 2.589844 261.566406 5.757812 C 261.566406 9.734375 367.980469 112.8125 368.621094 112.8125 C 371.789062 112.8125 374.359375 110.242188 374.359375 107.074219 L 374.359375 6.265625 C 374.375 6.097656 374.382812 5.929688 374.382812 5.757812 C 374.382812 2.578125 371.804688 -0.00390625 368.621094 -0.00390625 L 368.621094 0.0195312 L 267.304688 0.0195312" fill="#9340ff"/></g></g></svg>